<?xml version="1.0" encoding="UTF-8"?>
<svg width="24" height="24" viewBox="0 0 24 24" xmlns="http://www.w3.org/2000/svg">
  <!-- 背景圆形 -->
  <circle cx="12" cy="12" r="11" fill="#4CAF50" stroke="#388E3C" stroke-width="0.5"/>
  
  <!-- 左插头 -->
  <g>
    <!-- 插头主体 -->
    <rect x="4" y="8" width="6" height="8" rx="1" ry="1" fill="#E0E0E0" stroke="#424242" stroke-width="0.6"/>
    <!-- 插头金属接触点 -->
    <rect x="5" y="7" width="1" height="2" rx="0.2" ry="0.2" fill="#757575"/>
    <rect x="8" y="7" width="1" height="2" rx="0.2" ry="0.2" fill="#757575"/>
    <!-- 线缆 -->
    <path d="M7 16 L7 19" stroke="#E0E0E0" stroke-width="2.5" stroke-linecap="round"/>
  </g>
  
  <!-- 右插头 -->
  <g>
    <!-- 插头主体 -->
    <rect x="14" y="8" width="6" height="8" rx="1" ry="1" fill="#E0E0E0" stroke="#424242" stroke-width="0.6"/>
    <!-- 插头金属接触点 - 孔 -->
    <rect x="15" y="9.5" width="1" height="5" rx="0.2" ry="0.2" fill="#757575"/>
    <rect x="18" y="9.5" width="1" height="5" rx="0.2" ry="0.2" fill="#757575"/>
    <!-- 线缆 -->
    <path d="M17 16 L17 19" stroke="#E0E0E0" stroke-width="2.5" stroke-linecap="round"/>
  </g>
  
  <!-- 连接箭头 -->
  <g stroke="#FFFFFF" stroke-width="0.9" stroke-linecap="round" stroke-linejoin="round">
    <path d="M10 12 L14 12" stroke="#FFFFFF" stroke-width="1.2"/>
    <path d="M11.5 10.5 L10 12 L11.5 13.5" stroke="#FFFFFF" stroke-width="1.2"/>
    <path d="M12.5 10.5 L14 12 L12.5 13.5" stroke="#FFFFFF" stroke-width="1.2"/>
  </g>
  
  <!-- 连接指示 - 光晕效果 -->
  <circle cx="12" cy="12" r="2" fill="#A5D6A7" opacity="0.6"/>
</svg> 