<?xml version="1.0" encoding="UTF-8"?>
<svg width="24" height="24" viewBox="0 0 24 24" xmlns="http://www.w3.org/2000/svg">
  <!-- 透明背景 -->
  <rect width="24" height="24" fill="none" />
  
  <!-- 服务器和客户端图标 - 使用干净简洁的线条风格 -->
  <!-- 服务器 -->
  <rect x="3" y="6" width="6" height="12" rx="1" ry="1" fill="#FFFFFF" stroke="#2979FF" stroke-width="1.5" />
  <line x1="3" y1="9" x2="9" y2="9" stroke="#2979FF" stroke-width="1" />
  <line x1="3" y1="12" x2="9" y2="12" stroke="#2979FF" stroke-width="1" />
  <line x1="3" y1="15" x2="9" y2="15" stroke="#2979FF" stroke-width="1" />
  <circle cx="6" cy="7.5" r="0.7" fill="#F44336" />
  
  <!-- 客户端/终端 -->
  <rect x="15" y="6" width="6" height="12" rx="1" ry="1" fill="#FFFFFF" stroke="#2979FF" stroke-width="1.5" />
  <rect x="16" y="7.5" width="4" height="3" rx="0.5" ry="0.5" fill="#E3F2FD" stroke="#2979FF" stroke-width="0.8" />
  <line x1="16" y1="13" x2="20" y2="13" stroke="#2979FF" stroke-width="1" />
  <line x1="16" y1="15" x2="20" y2="15" stroke="#2979FF" stroke-width="1" />
  
  <!-- 断开的连接 -->
  <line x1="9" y1="12" x2="10.5" y2="12" stroke="#F44336" stroke-width="2" />
  <line x1="13.5" y1="12" x2="15" y2="12" stroke="#F44336" stroke-width="2" />
  
  <!-- 断开符号 -->
  <circle cx="12" cy="12" r="2.5" fill="#FFFFFF" stroke="#F44336" stroke-width="1" />
  <path d="M10.5 12 L13.5 12" stroke="#F44336" stroke-width="1.2" stroke-dasharray="0.7,0.7" />
  <path d="M10.5 10.5 L13.5 13.5 M13.5 10.5 L10.5 13.5" stroke="#F44336" stroke-width="1.2" />
</svg> 