<?xml version="1.0" encoding="UTF-8"?>
<svg width="24" height="24" viewBox="0 0 24 24" xmlns="http://www.w3.org/2000/svg">
  <!-- 背景 -->
  <rect width="24" height="24" fill="#FFFFFF" fill-opacity="0" />
  
  <!-- 蓝色背景圆 -->
  <circle cx="12" cy="12" r="10" fill="#2196F3" opacity="0.9" />
  
  <!-- 插座 - 下方位置 -->
  <rect x="8.5" y="14" width="7" height="6" rx="0.5" ry="0.5" fill="#E0E0E0" stroke="#424242" stroke-width="0.5" />
  <circle cx="10.5" cy="17" r="0.8" fill="#555555" />
  <circle cx="13.5" cy="17" r="0.8" fill="#555555" />
  
  <!-- 插头 - 连接状态 -->
  <rect x="8.5" y="4" width="7" height="6" rx="0.5" ry="0.5" fill="#F5F5F5" stroke="#424242" stroke-width="0.5" />
  <rect x="9" y="6.2" width="6" height="1.6" rx="0.3" ry="0.3" fill="#EEEEEE" stroke="#424242" stroke-width="0.2" />
  <circle cx="10.5" cy="7" r="0.7" fill="#757575" />
  <circle cx="13.5" cy="7" r="0.7" fill="#757575" />
  
  <!-- 电线 - 垂直放置 -->
  <path d="M12 10 L12 14" stroke="#616161" stroke-width="0.7" fill="none" />
  
  <!-- 文件图标 -->
  <g transform="translate(15, 2) scale(0.4)">
    <path d="M0,0 L10,0 L15,5 L15,20 L0,20 Z" fill="#FFFFFF" stroke="#1565C0" stroke-width="1.2" />
    <path d="M10,0 L10,5 L15,5" fill="none" stroke="#1565C0" stroke-width="1.2" />
    <path d="M3,8 L12,8 M3,12 L12,12 M3,16 L8,16" stroke="#1565C0" stroke-width="1.2" />
  </g>
  
  <!-- 上下传输箭头 -->
  <path d="M5 9 L5 15 M5 9 L3 11 M5 9 L7 11" stroke="#FFFFFF" stroke-width="0.9" stroke-linecap="round" stroke-linejoin="round" fill="none" />
  <path d="M19 15 L19 9 M19 15 L17 13 M19 15 L21 13" stroke="#FFFFFF" stroke-width="0.9" stroke-linecap="round" stroke-linejoin="round" fill="none" />
  
  <!-- FTP文字 - 简化的路径版本 -->
  <g transform="translate(15, 19) scale(0.18)">
    <path d="M0,0 L0,10 M0,0 L6,0 M0,5 L4,5" stroke="#FFFFFF" stroke-width="2.5" stroke-linecap="round" stroke-linejoin="round"/>
    <path d="M8,0 L14,0 M11,0 L11,10" stroke="#FFFFFF" stroke-width="2.5" stroke-linecap="round" stroke-linejoin="round"/>
    <path d="M16,0 L16,10 M16,0 L22,0 L22,5 L16,5" stroke="#FFFFFF" stroke-width="2.5" stroke-linecap="round" stroke-linejoin="round"/>
  </g>
</svg> 