<?xml version="1.0" encoding="UTF-8"?>
<svg width="24" height="24" viewBox="0 0 24 24" xmlns="http://www.w3.org/2000/svg">
  <!-- 背景圆形 -->
  <circle cx="12" cy="12" r="11" fill="#2196F3" stroke="#1565C0" stroke-width="0.5"/>
  
  <!-- 插头组合 - 转向垂直方向以便放置文件图标 -->
  <g transform="translate(12, 12) rotate(90) translate(-12, -12)">
    <!-- 左插头 -->
    <g>
      <!-- 插头主体 -->
      <rect x="4.5" y="8" width="5" height="8" rx="1" ry="1" fill="#E0E0E0" stroke="#424242" stroke-width="0.6"/>
      <!-- 插头金属接触点 -->
      <rect x="5.5" y="7" width="1" height="2" rx="0.2" ry="0.2" fill="#757575"/>
      <rect x="7.5" y="7" width="1" height="2" rx="0.2" ry="0.2" fill="#757575"/>
    </g>
    
    <!-- 右插头 -->
    <g>
      <!-- 插头主体 -->
      <rect x="14.5" y="8" width="5" height="8" rx="1" ry="1" fill="#E0E0E0" stroke="#424242" stroke-width="0.6"/>
      <!-- 插头金属接触点 - 孔 -->
      <rect x="15.5" y="9.5" width="1" height="5" rx="0.2" ry="0.2" fill="#757575"/>
      <rect x="17.5" y="9.5" width="1" height="5" rx="0.2" ry="0.2" fill="#757575"/>
    </g>
  </g>
  
  <!-- 文件图标 -->
  <g transform="translate(12, 12) scale(0.85) translate(-12, -12)">
    <!-- 文件夹 -->
    <path d="M6,8 L6,17 L18,17 L18,10 L12,10 L10,8 Z" fill="#BBDEFB" stroke="#1565C0" stroke-width="0.5"/>
    
    <!-- 文件 -->
    <path d="M9,5 L9,14 L15,14 L15,8 L12,5 Z" fill="#FFFFFF" stroke="#1565C0" stroke-width="0.5"/>
    <path d="M12,5 L12,8 L15,8" fill="none" stroke="#1565C0" stroke-width="0.5"/>
  </g>
  
  <!-- 传输箭头 -->
  <g fill="#FFFFFF" stroke="#FFFFFF" stroke-width="0.4">
    <!-- 上传箭头 -->
    <path d="M12,4 L12,8" stroke="#FFFFFF" stroke-width="1.2" stroke-linecap="round"/>
    <path d="M10,6 L12,4 L14,6" stroke="#FFFFFF" stroke-width="1.2" stroke-linecap="round" stroke-linejoin="round"/>
    
    <!-- 下载箭头 -->
    <path d="M12,16 L12,20" stroke="#FFFFFF" stroke-width="1.2" stroke-linecap="round"/>
    <path d="M10,18 L12,20 L14,18" stroke="#FFFFFF" stroke-width="1.2" stroke-linecap="round" stroke-linejoin="round"/>
  </g>
</svg> 